# xmcd
#
# Track frame offsets:
#	150
#	13816
#	28158
#	45762
#	56327
#	68573
#	80853
#	94433
#	109126
#	122176
#	135053
#	148690
#	161367
#	173505
#	187538
#	200765
#	212573
#	226660
#	240409
#	253527
#	264739
#	280492
#
# Disc length: 3948 seconds
#
# Revision: 1
# Processed by: cddbd v1.5.2PL0 Copyright (c) Steve Scherf et al.
# Submitted via: EasyCDDAExtractor 10.5.1.1
#
DISCID=270f6a16
DTITLE=Various Artist - 1 The RPM Blues Story
DYEAR=1900
DGENRE=Blues
TTITLE0=Three O Clock Blues ~ B.B. King
TTITLE1=Doin Time Blues ~ Lowell Fulson
TTITLE2=Crying At Daybreak ~ Howlin Wolf
TTITLE3=Don t Keep My Baby Long ~ Lightnin Hopkins 
TTITLE4=Fine Little Honey Dripper ~ Jimmy Nelson
TTITLE5=Too Tired ~ Johnny Guitar Watson
TTITLE6=It s Time For Lovin To Be Done ~ Little Eddie Kirkland
TTITLE7=City Women ~ Roscoe Gordon
TTITLE8=My Sweet Woman ~ Drifting Slim
TTITLE9=The World Is Yours ~Johnny Wright and Ike Turner's Orchestra
TTITLE10=Telephone Blues ~ Little George Smith 
TTITLE11=I Wonder ~ B.B. King
TTITLE12=Passing By Blues ~ Howlin Wolf
TTITLE13=T-99 Blues ~ Jimmy Nelson 
TTITLE14=Five Foot Three Blues ~ Sunny Blair
TTITLE15=Beggin You To Stay ~ Lightnin Hopkins
TTITLE16=Blues Stay Away ~ Little George Smith
TTITLE17=Your Heart Ain t Right ~ Jimmy McCracklin
TTITLE18=Troubles, Troubles, Troubles - BB King
TTITLE19=Dime A Dozen ~ Roscoe Gordon
TTITLE20=All Alone - Connie Mack Booker
TTITLE21=Three Hours Past Midnight ~Johnny Guitar Watson
EXTD=
EXTT0=
EXTT1=
EXTT2=
EXTT3=
EXTT4=
EXTT5=
EXTT6=
EXTT7=
EXTT8=
EXTT9=
EXTT10=
EXTT11=
EXTT12=
EXTT13=
EXTT14=
EXTT15=
EXTT16=
EXTT17=
EXTT18=
EXTT19=
EXTT20=
EXTT21=
PLAYORDER=
